<svg xmlns="http://www.w3.org/2000/svg" xmlns:xlink="http://www.w3.org/1999/xlink">
    <symbol id="icon-vk" viewBox="0 0 23 23">
        <g clip-path="url(#clip0)">
            <path d="M22.8781 16.6932C22.8502 16.6332 22.8243 16.5834 22.8001 16.5435C22.4011 15.8248 21.6385 14.9426 20.5129 13.8968L20.4891 13.8728L20.4772 13.8611L20.4652 13.8491H20.4531C19.9422 13.362 19.6187 13.0346 19.4832 12.8669C19.2353 12.5476 19.1798 12.2243 19.3153 11.8968C19.411 11.6493 19.7705 11.1267 20.3931 10.3282C20.7205 9.90507 20.9798 9.56592 21.1714 9.3104C22.5526 7.47412 23.1514 6.30071 22.9677 5.78971L22.8964 5.6703C22.8484 5.59841 22.7247 5.53264 22.5253 5.47266C22.3255 5.41281 22.0701 5.40291 21.7587 5.4428L18.3099 5.46662C18.2541 5.44683 18.1743 5.44867 18.0704 5.47266C17.9665 5.49665 17.9146 5.50869 17.9146 5.50869L17.8546 5.53868L17.8069 5.57471C17.767 5.59854 17.7231 5.64044 17.6752 5.70033C17.6275 5.76002 17.5876 5.83006 17.5557 5.90988C17.1802 6.87588 16.7533 7.77401 16.2742 8.60424C15.9788 9.0993 15.7075 9.52834 15.4598 9.89161C15.2123 10.2548 15.0047 10.5223 14.8372 10.6938C14.6695 10.8655 14.518 11.003 14.3821 11.1069C14.2463 11.2109 14.1426 11.2548 14.0709 11.2387C13.9989 11.2226 13.9312 11.2067 13.8671 11.1908C13.7554 11.1189 13.6655 11.0211 13.5978 10.8974C13.5298 10.7736 13.484 10.6179 13.46 10.4303C13.4362 10.2426 13.4221 10.0811 13.4181 9.9453C13.4143 9.8097 13.4161 9.61789 13.4242 9.37042C13.4325 9.12283 13.4362 8.95531 13.4362 8.86748C13.4362 8.56406 13.4421 8.23476 13.454 7.8795C13.4661 7.52424 13.4758 7.24276 13.484 7.03539C13.4921 6.82781 13.4959 6.6082 13.4959 6.37667C13.4959 6.14514 13.4818 5.96357 13.454 5.83178C13.4265 5.70016 13.3842 5.5724 13.3286 5.44855C13.2726 5.32481 13.1906 5.2291 13.0831 5.16115C12.9753 5.09329 12.8414 5.03943 12.6819 4.99942C12.2588 4.90366 11.7199 4.85186 11.0651 4.84381C9.58029 4.82787 8.62621 4.92375 8.20308 5.13133C8.03543 5.21903 7.88372 5.33886 7.74808 5.49045C7.60434 5.66615 7.58429 5.76203 7.68806 5.7778C8.16714 5.84957 8.50629 6.02124 8.7059 6.29266L8.77783 6.43648C8.83378 6.54025 8.88965 6.72396 8.94556 6.98737C9.00139 7.25077 9.03742 7.54215 9.05327 7.86134C9.09312 8.44423 9.09312 8.94319 9.05327 9.35826C9.0133 9.7735 8.97555 10.0968 8.93952 10.3283C8.90349 10.5598 8.84964 10.7474 8.77783 10.8911C8.7059 11.0348 8.65804 11.1226 8.63405 11.1545C8.6101 11.1864 8.59014 11.2065 8.57428 11.2143C8.47051 11.2541 8.36259 11.2744 8.2509 11.2744C8.13903 11.2744 8.00339 11.2184 7.84375 11.1066C7.68416 10.9948 7.51852 10.8412 7.34685 10.6455C7.17517 10.4499 6.98156 10.1764 6.76593 9.82521C6.55047 9.47398 6.32691 9.05887 6.09538 8.57987L5.90383 8.2325C5.78408 8.00902 5.6205 7.68363 5.41292 7.2566C5.20522 6.82941 5.02163 6.41618 4.86204 6.017C4.79824 5.84936 4.7024 5.72172 4.57468 5.63389L4.51475 5.59786C4.4749 5.56599 4.41094 5.53214 4.32319 5.49607C4.23532 5.46004 4.14363 5.4342 4.04775 5.4183L0.766558 5.44213C0.431262 5.44213 0.203761 5.51809 0.0839707 5.6698L0.0360294 5.74156C0.0120797 5.78153 0 5.84537 0 5.93324C0 6.02107 0.0239497 6.12887 0.071891 6.2565C0.550885 7.38226 1.07178 8.46797 1.63458 9.51378C2.19737 10.5596 2.68643 11.402 3.10146 12.0403C3.51658 12.6791 3.9397 13.2819 4.37084 13.8486C4.80197 14.4155 5.08736 14.7787 5.22699 14.9383C5.36678 15.0982 5.47659 15.2178 5.55641 15.2976L5.85584 15.5849C6.04744 15.7766 6.3288 16.0061 6.70004 16.2735C7.07136 16.541 7.48245 16.8044 7.93351 17.0641C8.38465 17.3234 8.90949 17.5349 9.50832 17.6985C10.1071 17.8623 10.6898 17.928 11.2567 17.8963H12.6339C12.9132 17.8722 13.1248 17.7844 13.2686 17.6328L13.3162 17.5728C13.3483 17.5251 13.3783 17.4511 13.406 17.3515C13.434 17.2517 13.4479 17.1418 13.4479 17.0222C13.4397 16.679 13.4658 16.3696 13.5256 16.0942C13.5853 15.8189 13.6533 15.6113 13.7294 15.4716C13.8054 15.3319 13.8912 15.214 13.9867 15.1185C14.0825 15.0227 14.1507 14.9647 14.1907 14.9447C14.2304 14.9247 14.2622 14.911 14.2861 14.9028C14.4777 14.839 14.7032 14.9008 14.9629 15.0886C15.2224 15.2762 15.4658 15.5079 15.6935 15.7832C15.921 16.0588 16.1944 16.3679 16.5137 16.7111C16.8332 17.0545 17.1125 17.3097 17.3519 17.4776L17.5914 17.6213C17.7512 17.7172 17.9588 17.805 18.2143 17.8848C18.4694 17.9646 18.6929 17.9846 18.8848 17.9447L21.9503 17.8969C22.2535 17.8969 22.4894 17.8467 22.6568 17.7471C22.8245 17.6473 22.9241 17.5373 22.9562 17.4178C22.9883 17.2981 22.99 17.1622 22.9623 17.0104C22.9339 16.859 22.9059 16.753 22.8781 16.6932Z"
                  fill="inherit"/>
        </g>
        <defs>
            <clipPath id="clip0">
                <rect width="23" height="23" fill="#EFEDF9"/>
            </clipPath>
        </defs>
    </symbol>
    <symbol id="icon-instagram" viewBox="0 0 511 511.9">
        <path d="m510.949219 150.5c-1.199219-27.199219-5.597657-45.898438-11.898438-62.101562-6.5-17.199219-16.5-32.597657-29.601562-45.398438-12.800781-13-28.300781-23.101562-45.300781-29.5-16.296876-6.300781-34.898438-10.699219-62.097657-11.898438-27.402343-1.300781-36.101562-1.601562-105.601562-1.601562s-78.199219.300781-105.5 1.5c-27.199219 1.199219-45.898438 5.601562-62.097657 11.898438-17.203124 6.5-32.601562 16.5-45.402343 29.601562-13 12.800781-23.097657 28.300781-29.5 45.300781-6.300781 16.300781-10.699219 34.898438-11.898438 62.097657-1.300781 27.402343-1.601562 36.101562-1.601562 105.601562s.300781 78.199219 1.5 105.5c1.199219 27.199219 5.601562 45.898438 11.902343 62.101562 6.5 17.199219 16.597657 32.597657 29.597657 45.398438 12.800781 13 28.300781 23.101562 45.300781 29.5 16.300781 6.300781 34.898438 10.699219 62.101562 11.898438 27.296876 1.203124 36 1.5 105.5 1.5s78.199219-.296876 105.5-1.5c27.199219-1.199219 45.898438-5.597657 62.097657-11.898438 34.402343-13.300781 61.601562-40.5 74.902343-74.898438 6.296876-16.300781 10.699219-34.902343 11.898438-62.101562 1.199219-27.300781 1.5-36 1.5-105.5s-.101562-78.199219-1.300781-105.5zm-46.097657 209c-1.101562 25-5.300781 38.5-8.800781 47.5-8.601562 22.300781-26.300781 40-48.601562 48.601562-9 3.5-22.597657 7.699219-47.5 8.796876-27 1.203124-35.097657 1.5-103.398438 1.5s-76.5-.296876-103.402343-1.5c-25-1.097657-38.5-5.296876-47.5-8.796876-11.097657-4.101562-21.199219-10.601562-29.398438-19.101562-8.5-8.300781-15-18.300781-19.101562-29.398438-3.5-9-7.699219-22.601562-8.796876-47.5-1.203124-27-1.5-35.101562-1.5-103.402343s.296876-76.5 1.5-103.398438c1.097657-25 5.296876-38.5 8.796876-47.5 4.101562-11.101562 10.601562-21.199219 19.203124-29.402343 8.296876-8.5 18.296876-15 29.398438-19.097657 9-3.5 22.601562-7.699219 47.5-8.800781 27-1.199219 35.101562-1.5 103.398438-1.5 68.402343 0 76.5.300781 103.402343 1.5 25 1.101562 38.5 5.300781 47.5 8.800781 11.097657 4.097657 21.199219 10.597657 29.398438 19.097657 8.5 8.300781 15 18.300781 19.101562 29.402343 3.5 9 7.699219 22.597657 8.800781 47.5 1.199219 27 1.5 35.097657 1.5 103.398438s-.300781 76.300781-1.5 103.300781zm0 0"/>
        <path d="m256.449219 124.5c-72.597657 0-131.5 58.898438-131.5 131.5s58.902343 131.5 131.5 131.5c72.601562 0 131.5-58.898438 131.5-131.5s-58.898438-131.5-131.5-131.5zm0 216.800781c-47.097657 0-85.300781-38.199219-85.300781-85.300781s38.203124-85.300781 85.300781-85.300781c47.101562 0 85.300781 38.199219 85.300781 85.300781s-38.199219 85.300781-85.300781 85.300781zm0 0"/>
        <path d="m423.851562 119.300781c0 16.953125-13.746093 30.699219-30.703124 30.699219-16.953126 0-30.699219-13.746094-30.699219-30.699219 0-16.957031 13.746093-30.699219 30.699219-30.699219 16.957031 0 30.703124 13.742188 30.703124 30.699219zm0 0"/>
    </symbol>
    <symbol id="icon-whatsapp" viewBox="-23 -21 682 682.66669">
        <path d="m544.386719 93.007812c-59.875-59.945312-139.503907-92.9726558-224.335938-93.007812-174.804687 0-317.070312 142.261719-317.140625 317.113281-.023437 55.894531 14.578125 110.457031 42.332032 158.550781l-44.992188 164.335938 168.121094-44.101562c46.324218 25.269531 98.476562 38.585937 151.550781 38.601562h.132813c174.785156 0 317.066406-142.273438 317.132812-317.132812.035156-84.742188-32.921875-164.417969-92.800781-224.359376zm-224.335938 487.933594h-.109375c-47.296875-.019531-93.683594-12.730468-134.160156-36.742187l-9.621094-5.714844-99.765625 26.171875 26.628907-97.269531-6.269532-9.972657c-26.386718-41.96875-40.320312-90.476562-40.296875-140.28125.054688-145.332031 118.304688-263.570312 263.699219-263.570312 70.40625.023438 136.589844 27.476562 186.355469 77.300781s77.15625 116.050781 77.132812 186.484375c-.0625 145.34375-118.304687 263.59375-263.59375 263.59375zm144.585938-197.417968c-7.921875-3.96875-46.882813-23.132813-54.148438-25.78125-7.257812-2.644532-12.546875-3.960938-17.824219 3.96875-5.285156 7.929687-20.46875 25.78125-25.09375 31.066406-4.625 5.289062-9.242187 5.953125-17.167968 1.984375-7.925782-3.964844-33.457032-12.335938-63.726563-39.332031-23.554687-21.011719-39.457031-46.960938-44.082031-54.890626-4.617188-7.9375-.039062-11.8125 3.476562-16.171874 8.578126-10.652344 17.167969-21.820313 19.808594-27.105469 2.644532-5.289063 1.320313-9.917969-.664062-13.882813-1.976563-3.964844-17.824219-42.96875-24.425782-58.839844-6.4375-15.445312-12.964843-13.359374-17.832031-13.601562-4.617187-.230469-9.902343-.277344-15.1875-.277344-5.28125 0-13.867187 1.980469-21.132812 9.917969-7.261719 7.933594-27.730469 27.101563-27.730469 66.105469s28.394531 76.683594 32.355469 81.972656c3.960937 5.289062 55.878906 85.328125 135.367187 119.648438 18.90625 8.171874 33.664063 13.042968 45.175782 16.695312 18.984374 6.03125 36.253906 5.179688 49.910156 3.140625 15.226562-2.277344 46.878906-19.171875 53.488281-37.679687 6.601563-18.511719 6.601563-34.375 4.617187-37.683594-1.976562-3.304688-7.261718-5.285156-15.183593-9.253906zm0 0"
              fill-rule="evenodd"/>
    </symbol>
    <symbol id="icon-telegram" viewBox="0 0 24 24">
        <path d="m12 24c6.617 0 12-5.383 12-12s-5.383-12-12-12-12 5.383-12 12 5.383 12 12 12zm0-22.5c5.79 0 10.5 4.71 10.5 10.5s-4.71 10.5-10.5 10.5-10.5-4.71-10.5-10.5 4.71-10.5 10.5-10.5z"/>
        <path d="m7.896 14.155 1.568-.681-.44.441c-.141.141-.22.332-.22.53v2.935c0 .672.812.998 1.28.53l1.574-1.574 3.43 1.715c.444.222.981-.041 1.073-.537l1.957-10.761c.103-.579-.467-1.047-1.012-.833l-12.716 4.977c-.57.222-.646 1.002-.13 1.331l2.934 1.872c.21.134.475.155.702.055zm8.506-6.347-1.537 8.455-3.02-1.509c-.292-.146-.64-.085-.865.141l-.676.676v-.813l3.007-3.007c.583-.583-.073-1.545-.829-1.218l-4.817 2.09-1.354-.864z"/>
    </symbol>
</svg>